<?xml version="1.0" encoding="UTF-8"?>
<!-- Generator: Adobe Illustrator 24.2.1, SVG Export Plug-In . SVG Version: 6.00 Build 0)  -->
<svg version="1.1" id="Layer_1" xmlns="http://www.w3.org/2000/svg" xmlns:xlink="http://www.w3.org/1999/xlink" x="0px" y="0px" viewBox="0 0 517.1 130.6" style="enable-background:new 0 0 517.1 130.6;" xml:space="preserve">
<style type="text/css">
	.st0{fill:#EC6519;}
	.st1{fill:#404040;}
</style>
<path class="st0" d="M132.3,79c-2.4,0-4.6,1.2-5.8,3.2c-1.2,2-1.2,4.6,0,6.6c1.2,2,3.4,3.3,5.8,3.2c3.6-0.1,6.4-3,6.4-6.5  C138.8,82,135.9,79.1,132.3,79z"/>
<path class="st0" d="M124,96c-3.1,0-5.6,2.5-5.6,5.5c0,3.1,2.5,5.6,5.6,5.6c3.1,0,5.6-2.5,5.6-5.6C129.6,98.5,127.1,96,124,96z"/>
<ellipse transform="matrix(0.9994 -3.327866e-02 3.327866e-02 0.9994 -3.7351 3.7796)" class="st0" cx="111.7" cy="114.1" rx="4.8" ry="4.8"/>
<path class="st0" d="M97.8,118.3c-2.2,0-3.9,1.7-3.9,3.9c0,2.2,1.7,3.9,3.9,3.9c2.2,0,3.9-1.7,3.9-3.9  C101.7,120,100,118.3,97.8,118.3z"/>
<path class="st0" d="M84.2,123c-1.8,0-3.3,1.5-3.3,3.3c0,1.8,1.5,3.3,3.3,3.3c1.8,0,3.3-1.5,3.3-3.3C87.6,124.5,86.1,123,84.2,123z"/>
<path class="st0" d="M71.5,124.9c-1.6,0-2.9,1.3-2.9,2.9c0,1.6,1.3,2.9,2.9,2.9c1.6,0,2.9-1.3,2.9-2.9  C74.3,126.2,73,124.9,71.5,124.9z"/>
<path class="st0" d="M58.7,123c-1.8,0-3.3,1.5-3.3,3.3c0,1.8,1.5,3.3,3.3,3.3c1.8,0,3.3-1.5,3.3-3.3C62,124.5,60.5,123,58.7,123z"/>
<path class="st0" d="M45.1,118.2c-1.4,0-2.7,0.7-3.4,1.9c-0.7,1.2-0.7,2.7,0,3.9c0.7,1.2,2,1.9,3.4,1.9c2.1,0,3.9-1.7,3.9-3.9  C48.9,120,47.2,118.3,45.1,118.2z"/>
<path class="st0" d="M31.2,109.3c-1.7,0-3.3,0.9-4.2,2.4c-0.9,1.5-0.9,3.3,0,4.8c0.9,1.5,2.4,2.4,4.2,2.4c2.6,0,4.8-2.1,4.8-4.8  C36,111.5,33.9,109.3,31.2,109.3z"/>
<path class="st0" d="M18.9,96c-3.1,0-5.6,2.5-5.6,5.6c0,3.1,2.5,5.6,5.6,5.6c3.1,0,5.6-2.5,5.6-5.6C24.4,98.5,22,96,18.9,96z"/>
<path class="st0" d="M10.6,79c-2.4-0.1-4.6,1.2-5.8,3.2c-1.2,2-1.2,4.6,0,6.6c1.2,2,3.4,3.3,5.8,3.2c3.6-0.1,6.4-3,6.4-6.5  C17,82,14.1,79.1,10.6,79z"/>
<path class="st0" d="M7.6,57.8c-4.2,0-7.6,3.4-7.6,7.6c0,4.2,3.4,7.6,7.6,7.6c4.2,0,7.6-3.4,7.6-7.6C15.1,61.2,11.8,57.8,7.6,57.8z"/>
<path class="st0" d="M10.6,38.6c-2.4,0-4.6,1.2-5.8,3.2c-1.2,2-1.2,4.6,0,6.6c1.2,2,3.4,3.3,5.8,3.2c3.6-0.1,6.4-3,6.4-6.5  S14.1,38.7,10.6,38.6z"/>
<path class="st0" d="M18.9,23.5c-2,0-3.9,1-4.9,2.8c-1,1.7-1,3.9,0,5.6c1,1.7,2.9,2.8,4.9,2.8c3-0.1,5.5-2.5,5.5-5.6  C24.3,26.1,21.9,23.6,18.9,23.5z"/>
<path class="st0" d="M31.2,11.7c-2.6,0-4.8,2.1-4.8,4.8c0,2.6,2.1,4.8,4.8,4.8c2.6,0,4.8-2.1,4.8-4.8C36,13.9,33.9,11.7,31.2,11.7z"/>
<path class="st0" d="M45.1,4.6c-2.1,0-3.9,1.7-3.9,3.9c0,2.1,1.7,3.9,3.9,3.9c2.1,0,3.9-1.7,3.9-3.9C48.9,6.4,47.2,4.6,45.1,4.6z"/>
<path class="st0" d="M58.7,1c-1.9,0-3.4,1.5-3.4,3.4s1.5,3.4,3.4,3.4c1.8,0,3.3-1.5,3.3-3.3C61.9,2.5,60.5,1,58.7,1L58.7,1z"/>
<path class="st0" d="M71.4,0c-1.6,0-2.9,1.3-2.9,2.9c0,1.6,1.3,2.9,2.9,2.9c1.6,0,2.9-1.3,2.9-2.9C74.3,1.3,73,0,71.4,0z"/>
<path class="st0" d="M84.2,1c-1.8,0-3.3,1.5-3.3,3.3c0,1.8,1.5,3.3,3.3,3.3c1.8,0,3.3-1.5,3.3-3.3C87.6,2.5,86.1,1,84.2,1z"/>
<path class="st0" d="M97.8,4.6c-1.4,0-2.7,0.7-3.4,1.9c-0.7,1.2-0.7,2.7,0,3.9s2,1.9,3.4,1.9c2.1,0,3.9-1.7,3.9-3.9  S100,4.6,97.8,4.6L97.8,4.6z"/>
<path class="st0" d="M111.7,11.8c-2.6,0-4.8,2.1-4.8,4.8c0,2.6,2.1,4.8,4.8,4.8c2.6,0,4.8-2.1,4.8-4.8  C116.5,13.9,114.3,11.8,111.7,11.8z"/>
<path class="st0" d="M124,23.5c-3.1,0-5.6,2.5-5.6,5.6c0,3.1,2.5,5.6,5.6,5.6c3.1,0,5.6-2.5,5.6-5.6C129.6,26,127.1,23.5,124,23.5z"/>
<path class="st0" d="M132.3,38.6c-2.4,0-4.6,1.2-5.8,3.2c-1.2,2-1.2,4.6,0,6.6c1.2,2,3.4,3.3,5.8,3.2c3.6-0.1,6.4-3,6.4-6.5  C138.7,41.5,135.9,38.6,132.3,38.6z"/>
<path class="st0" d="M102.3,75.3c-1.1,0-2.1,0.5-2.6,1.4c-0.5,0.9-0.5,2.1,0,3c0.5,0.9,1.5,1.5,2.6,1.4c1.6-0.1,2.8-1.4,2.8-2.9  C105.2,76.7,103.9,75.4,102.3,75.3L102.3,75.3z"/>
<path class="st0" d="M95,86.2c-1.1,0-2.1,0.5-2.6,1.4c-0.5,0.9-0.5,2.1,0,3s1.6,1.5,2.6,1.4c1.6-0.1,2.8-1.4,2.8-2.9  C97.8,87.6,96.6,86.3,95,86.2z"/>
<path class="st0" d="M84.1,93.2c-1.1,0-2.2,0.6-2.8,1.6c-0.6,1-0.6,2.2,0,3.2c0.6,1,1.6,1.6,2.8,1.6c1.8,0,3.2-1.4,3.2-3.2  S85.9,93.2,84.1,93.2L84.1,93.2z"/>
<path class="st0" d="M71.3,95.1c-2.4,0-4.3,1.9-4.3,4.3c0,2.4,1.9,4.3,4.3,4.3c2.4,0,4.3-1.9,4.3-4.3C75.5,97,73.6,95.1,71.3,95.1z"/>
<path class="st0" d="M58.4,92.5c-2.7,0-4.9,2.2-4.9,4.9c0,2.7,2.2,4.9,4.9,4.9c2.7,0,4.9-2.2,4.9-4.9C63.3,94.7,61.1,92.5,58.4,92.5  z"/>
<path class="st0" d="M46.8,84.3c-3,0-5.4,2.4-5.4,5.4c0,3,2.4,5.4,5.4,5.4c3,0,5.4-2.4,5.4-5.4C52.2,86.7,49.8,84.3,46.8,84.3z"/>
<path class="st0" d="M39.1,73.3c-2.5,0-4.5,2-4.5,4.5c0,2.5,2,4.5,4.5,4.5c2.5,0,4.5-2,4.5-4.5C43.7,75.4,41.6,73.3,39.1,73.3z"/>
<path class="st0" d="M37.3,61.3c-1.9,0-3.5,1.6-3.5,3.5c0,1.9,1.6,3.5,3.5,3.5c1.9,0,3.5-1.6,3.5-3.5C40.8,62.8,39.3,61.3,37.3,61.3  z"/>
<path class="st0" d="M40.4,49.5c-1.6,0-2.9,1.3-2.9,2.9c0,1.6,1.3,2.9,2.9,2.9c1.6,0,2.9-1.3,2.9-2.9C43.4,50.8,42,49.5,40.4,49.5  L40.4,49.5z"/>
<path class="st0" d="M47.8,38.7c-1.1,0-2.1,0.5-2.6,1.4c-0.5,0.9-0.5,2.1,0,3c0.5,0.9,1.6,1.5,2.6,1.4c1.6,0,2.9-1.3,2.9-2.9  C50.6,40,49.3,38.7,47.8,38.7L47.8,38.7z"/>
<path class="st0" d="M58.6,31.1c-1.8,0-3.2,1.4-3.2,3.2c0,1.8,1.4,3.2,3.2,3.2c1.8,0,3.2-1.4,3.2-3.2C61.8,32.6,60.4,31.1,58.6,31.1  L58.6,31.1z"/>
<ellipse transform="matrix(3.837692e-02 -0.9993 0.9993 3.837692e-02 37.4585 101.4962)" class="st0" cx="71.5" cy="31.3" rx="4.3" ry="4.3"/>
<path class="st0" d="M84.3,28.4c-2.7,0-4.9,2.2-4.9,4.9c0,2.7,2.2,4.9,4.9,4.9c2.7,0,4.9-2.2,4.9-4.9C89.2,30.6,87,28.4,84.3,28.4z"/>
<path class="st0" d="M95.9,35.6c-3,0-5.4,2.4-5.4,5.4c0,3,2.4,5.4,5.4,5.4c3,0,5.4-2.4,5.4-5.4C101.3,38,98.9,35.6,95.9,35.6z"/>
<path class="st0" d="M103.6,48.3c-2.5,0-4.5,2-4.5,4.5c0,2.5,2,4.5,4.5,4.5s4.5-2,4.5-4.5C108.1,50.3,106.1,48.3,103.6,48.3z"/>
<circle class="st0" cx="91.8" cy="70.9" r="2.7"/>
<path class="st0" d="M86.5,76.6c-2.2,0-4,1.8-4,4c0,2.2,1.8,4,4,4c2.2,0,4-1.8,4-4C90.6,78.4,88.8,76.6,86.5,76.6z"/>
<path class="st0" d="M76.2,82c-2.3,0-4.2,1.9-4.2,4.2c0,2.3,1.9,4.2,4.2,4.2c2.3,0,4.2-1.9,4.2-4.2C80.4,83.9,78.5,82,76.2,82z"/>
<path class="st0" d="M64,81.7c-1.3,0-2.6,0.7-3.2,1.9c-0.7,1.2-0.7,2.6,0,3.7c0.7,1.2,1.9,1.9,3.2,1.9c2.1,0,3.7-1.7,3.7-3.7  C67.8,83.4,66.1,81.7,64,81.7z"/>
<path class="st0" d="M55,75.6c-1.5,0-2.7,1.2-2.7,2.7c0,1.5,1.2,2.7,2.7,2.7c1.5,0,2.7-1.2,2.7-2.7C57.8,76.9,56.5,75.6,55,75.6z"/>
<path class="st0" d="M51.4,67.7c-1.1,0-2,0.9-2,2c0,1.1,0.9,2,2,2c1.1,0,2-0.9,2-2C53.4,68.6,52.5,67.7,51.4,67.7z"/>
<path class="st0" d="M51.2,57.4c-1.5,0-2.7,1.2-2.7,2.7c0,1.5,1.2,2.7,2.7,2.7c1.5,0,2.7-1.2,2.7-2.7C53.9,58.6,52.7,57.4,51.2,57.4  L51.2,57.4z"/>
<path class="st0" d="M56.5,46.3c-2.2,0-4,1.8-4,4s1.8,4,4,4c2.2,0,4-1.8,4-4S58.7,46.3,56.5,46.3z"/>
<path class="st0" d="M66.8,40.5c-2.3,0-4.2,1.9-4.2,4.2c0,2.3,1.9,4.2,4.2,4.2c2.3,0,4.2-1.9,4.2-4.2C71,42.4,69.1,40.5,66.8,40.5z"/>
<path class="st0" d="M79,41.8c-1.4,0-2.6,0.7-3.3,1.8c-0.7,1.2-0.7,2.6,0,3.8c0.7,1.2,2,1.9,3.3,1.8c2-0.1,3.6-1.7,3.6-3.7  C82.6,43.5,81,41.9,79,41.8z"/>
<path class="st0" d="M87.9,49.8c-1.5,0-2.7,1.2-2.7,2.7c0,1.5,1.2,2.7,2.7,2.7c1.5,0,2.7-1.2,2.7-2.7C90.7,51,89.5,49.8,87.9,49.8  L87.9,49.8z"/>
<path class="st0" d="M91.7,59.3c-1.1,0-2,0.9-2,2s0.9,2,2,2c1.1,0,2-0.9,2-2S92.8,59.3,91.7,59.3z"/>
<path class="st0" d="M105.4,62.4c-1.9,0-3.5,1.6-3.5,3.5c0,1.9,1.6,3.5,3.5,3.5c1.9,0,3.5-1.6,3.5-3.5  C108.9,64,107.3,62.4,105.4,62.4L105.4,62.4z"/>
<path class="st0" d="M119.9,66.7c-2.1,0-3.7,1.7-3.7,3.7c0,2.1,1.7,3.7,3.7,3.7c2.1,0,3.7-1.7,3.7-3.7  C123.6,68.4,122,66.7,119.9,66.7z"/>
<path class="st0" d="M116.2,79.8c-1.9,0-3.5,1.6-3.5,3.5s1.6,3.5,3.5,3.5c1.9,0,3.5-1.6,3.5-3.5C119.7,81.4,118.2,79.8,116.2,79.8  L116.2,79.8z"/>
<path class="st0" d="M109.9,90.8c-1.6,0-3,1.3-3,3c0,1.6,1.3,3,3,3c1.6,0,2.9-1.4,2.9-3C112.8,92.2,111.5,90.9,109.9,90.8  L109.9,90.8z"/>
<path class="st0" d="M102.3,99c-0.9,0-1.8,0.5-2.3,1.3c-0.5,0.8-0.5,1.8,0,2.6c0.5,0.8,1.3,1.3,2.3,1.3c1.4,0,2.6-1.1,2.6-2.6  C104.9,100.2,103.7,99,102.3,99L102.3,99z"/>
<path class="st0" d="M94.3,105c-1.2,0-2.2,1-2.2,2.2c0,1.2,1,2.2,2.2,2.2c1.2,0,2.2-1,2.2-2.2S95.5,105,94.3,105L94.3,105z"/>
<path class="st0" d="M85.2,108.4c-1.4,0-2.6,1.1-2.6,2.6c0,1.4,1.1,2.6,2.6,2.6c1.4,0,2.6-1.1,2.6-2.6  C87.7,109.5,86.6,108.4,85.2,108.4L85.2,108.4z"/>
<path class="st0" d="M74.5,110.1c-1.6,0-3,1.3-3,3c0,1.6,1.3,3,3,3c1.6,0,3-1.3,3-3C77.4,111.4,76.1,110.1,74.5,110.1z"/>
<path class="st0" d="M62.3,108.9c-2.1,0-3.8,1.7-3.8,3.8c0,2.1,1.7,3.8,3.8,3.8c2.1,0,3.8-1.7,3.8-3.8S64.4,108.9,62.3,108.9  L62.3,108.9z"/>
<path class="st0" d="M49.4,104.3c-2.5,0-4.5,2-4.5,4.5c0,2.5,2,4.5,4.5,4.5c2.5,0,4.5-2,4.5-4.5C54,106.3,51.9,104.3,49.4,104.3z"/>
<path class="st0" d="M38.1,95.7c-1.9,0-3.7,1-4.7,2.6c-1,1.7-1,3.7,0,5.4c1,1.7,2.8,2.7,4.7,2.6c2.9-0.1,5.2-2.4,5.2-5.3  C43.3,98.2,41,95.8,38.1,95.7z"/>
<path class="st0" d="M28.6,82.9c-3.2,0-5.8,2.6-5.8,5.8c0,3.2,2.6,5.8,5.8,5.8c3.2,0,5.8-2.6,5.8-5.8C34.4,85.4,31.8,82.9,28.6,82.9  z"/>
<ellipse transform="matrix(7.088830e-02 -0.9975 0.9975 7.088830e-02 -52.2184 91.9476)" class="st0" cx="23.2" cy="74" rx="4.6" ry="4.6"/>
<ellipse transform="matrix(5.529993e-02 -0.9985 0.9985 5.529993e-02 -38.4253 79.8567)" class="st0" cx="23" cy="60.2" rx="3.7" ry="3.7"/>
<path class="st0" d="M26.7,43.8c-1.9,0-3.5,1.6-3.5,3.5c0,1.9,1.6,3.5,3.5,3.5c1.9,0,3.5-1.6,3.5-3.5C30.2,45.4,28.6,43.8,26.7,43.8  L26.7,43.8z"/>
<path class="st0" d="M33,33.9c-1.1,0-2.1,0.5-2.6,1.5c-0.5,0.9-0.5,2.1,0,3c0.5,0.9,1.6,1.5,2.6,1.5c1.6,0,2.9-1.4,2.9-3  C35.9,35.2,34.6,33.9,33,33.9z"/>
<path class="st0" d="M40.6,26.5c-1.4,0-2.6,1.1-2.6,2.6c0,1.4,1.1,2.6,2.6,2.6s2.6-1.1,2.6-2.6C43.2,27.7,42,26.5,40.6,26.5z"/>
<path class="st0" d="M48.6,21.3c-1.2,0-2.2,1-2.2,2.2c0,1.2,1,2.2,2.2,2.2c1.2,0,2.2-1,2.2-2.2C50.8,22.2,49.8,21.3,48.6,21.3z"/>
<path class="st0" d="M57.7,17.2c-1.4,0-2.6,1.1-2.6,2.6c0,1.4,1.1,2.6,2.6,2.6c1.4,0,2.6-1.1,2.6-2.6C60.3,18.3,59.1,17.2,57.7,17.2  z"/>
<path class="st0" d="M68.4,14.6c-1.1,0-2.1,0.5-2.6,1.5c-0.5,0.9-0.5,2.1,0,3c0.5,0.9,1.6,1.5,2.6,1.5c1.6,0,2.9-1.4,2.9-3  S70,14.7,68.4,14.6z"/>
<path class="st0" d="M80.6,14.1c-1.4,0-2.7,0.7-3.4,1.9c-0.7,1.2-0.7,2.7,0,3.9c0.7,1.2,2,1.9,3.4,1.9c2.1,0,3.8-1.8,3.8-3.9  C84.4,15.8,82.7,14.1,80.6,14.1z"/>
<path class="st0" d="M93.1,17c-2.5,0-4.6,2-4.6,4.6c0,2.5,2,4.6,4.6,4.6c2.5,0,4.6-2,4.6-4.6C97.7,19.1,95.6,17,93.1,17L93.1,17z"/>
<path class="st0" d="M104.9,24.2c-3,0-5.3,2.4-5.3,5.3c0,2.9,2.4,5.3,5.3,5.3c3,0,5.3-2.4,5.3-5.3C110.2,26.6,107.8,24.2,104.9,24.2  z"/>
<path class="st0" d="M114.3,36.2c-2.1,0-4,1.1-5.1,2.9c-1.1,1.8-1.1,4,0,5.8c1.1,1.8,3,2.9,5.1,2.9c3.2-0.1,5.7-2.6,5.7-5.8  C119.9,38.9,117.4,36.3,114.3,36.2z"/>
<path class="st0" d="M119.6,52.1c-1.6,0-3.2,0.8-4,2.2c-0.8,1.4-0.8,3.2,0,4.6c0.8,1.4,2.4,2.3,4,2.2c2.5-0.1,4.4-2.1,4.4-4.5  C124,54.2,122.1,52.2,119.6,52.1L119.6,52.1z"/>
<path class="st0" d="M142.9,65.3c0,4.2-3.4,7.6-7.6,7.6c-4.2,0-7.6-3.4-7.6-7.6c0-4.2,3.4-7.6,7.6-7.6  C139.5,57.8,142.9,61.2,142.9,65.3z"/>
<path class="st1" d="M517.1,77c0-7.2-4.1-11-10.5-13.6c-5-2-9.4-3.7-12.8-5.1c-3.3-1.3-6.2-3.6-6.2-6.1c0-3.4,4.2-5.4,9.8-5.4  c6.6,0,11.8,0.9,16.7,1.4h0.2c0.8,0,1.3-0.6,1.3-1.4v-5.6c0-0.7-0.6-1.3-1.4-1.4c-2.6-0.6-9.2-2-16.4-2c-14,0-20.7,6-20.7,14.4  c0,5.3,2.3,10.5,8.9,13.2c6.6,2.7,20.1,5.9,20.1,11.5c0,4.4-2,6.8-8.8,6.8c-7,0-14.1-1-17.1-1.4h-0.2c-0.8,0-1.4,0.6-1.4,1.4v5.4  c0,0.8,0.7,1.4,1.4,1.5c3.6,0.8,10.4,2,17.1,2C512.4,92.8,517.1,84.6,517.1,77z"/>
<path class="st1" d="M369.1,47.2H354v43.4c0,0.8-0.7,1.5-1.5,1.5h-7.5c-0.8,0-1.5-0.7-1.5-1.5V47.2h-15.1c-0.8,0-1.5-0.5-1.5-1.4v-6  c0-0.8,0.7-1.4,1.5-1.4h40.7c0.8,0,1.5,0.6,1.5,1.4v6C370.6,46.7,369.9,47.2,369.1,47.2L369.1,47.2z"/>
<path class="st1" d="M320.3,71.4V39.9c0-0.8-0.7-1.4-1.5-1.4h-7.5c-0.8,0-1.5,0.6-1.5,1.4v31.4c0,8.6-4,12.7-12.1,12.7  c-8.1,0-12.1-4.1-12.1-12.7V39.9c0-0.8-0.7-1.4-1.5-1.4h-7.5c-0.8,0-1.5,0.6-1.5,1.4v31.4c0,16.1,10.5,21.4,22.6,21.4  C309.8,92.7,320.3,87.5,320.3,71.4z"/>
<path class="st1" d="M388,68.8h24.2c0.8,0,1.5-0.7,1.5-1.5v-5.5c0-0.8-0.7-1.5-1.5-1.5H388v-6.9c0-6.3,0.2-6.5,6-6.5h19.1  c0.8,0,1.5-0.7,1.5-1.5v-4.8c0-1.1-0.4-1.4-1.5-1.6c-2.4-0.4-7.3-1.1-16.3-1.1c-12.5,0-19.2-0.1-19.2,15.5v23.9  c0,15.6,6.7,15.5,19.2,15.5c9,0,13.9-0.7,16.3-1.1c1.1-0.1,1.5-0.5,1.5-1.6v-4.8c0-0.8-0.7-1.5-1.5-1.5H394c-5.7,0-6-0.2-6-6.5  L388,68.8L388,68.8z"/>
<path class="st1" d="M238.7,68.8h24.2c0.8,0,1.5-0.7,1.5-1.5v-5.5c0-0.8-0.7-1.5-1.5-1.5h-24.2v-6.9c0-6.3,0.2-6.5,6-6.5h19.1  c0.8,0,1.5-0.7,1.5-1.5v-4.8c0-1.1-0.4-1.4-1.5-1.6c-2.4-0.4-7.3-1.1-16.3-1.1c-12.5,0-19.2-0.1-19.2,15.5v23.9  c0,15.6,6.7,15.5,19.2,15.5c9,0,13.9-0.7,16.3-1.1c1.1-0.1,1.5-0.5,1.5-1.6v-4.8c0-0.8-0.7-1.5-1.5-1.5h-19.1c-5.7,0-6-0.2-6-6.5  V68.8L238.7,68.8z"/>
<path class="st1" d="M470.8,90.6L459,70.4c6.2-2.4,10.2-6.8,10.2-14.8V55c0-12.9-10.7-17.1-22.4-17.1c-5.5,0-14,0.4-17.9,1  c-1.5,0.2-2.4,0.8-2.4,2.3v49.5c0,0.8,0.7,1.5,1.5,1.5h7.6c0.8,0,1.4-0.7,1.4-1.5V72c1.7,0.1,7.8,0.3,9.8,0.3h1.7l10.9,18.3  c0.4,0.7,0.7,1.5,1.5,1.5h9.2c0.6,0,0.9-0.4,0.9-0.9C471,91,470.9,90.8,470.8,90.6z M458.7,55.6c0,6.6-4.2,8.1-12,8.1  c-1.3,0-8.6-0.2-9.8-0.2V47.2c1.3-0.2,8.2-0.3,9.8-0.3c7.6,0,12,2.4,12,8.1V55.6z"/>
<path class="st1" d="M220.1,90.6l-11.9-20.2c6.2-2.4,10.2-6.8,10.2-14.8V55c0-12.9-10.7-17.1-22.4-17.1c-5.5,0-14,0.4-17.9,1  c-1.5,0.2-2.4,0.8-2.4,2.3v49.5c0,0.8,0.7,1.5,1.5,1.5h7.6c0.8,0,1.4-0.7,1.4-1.5V72c1.7,0.1,7.8,0.3,9.8,0.3h1.7l10.9,18.3  c0.4,0.7,0.7,1.5,1.5,1.5h9.2c0.6,0,0.9-0.4,0.9-0.9C220.2,91,220.2,90.8,220.1,90.6z M208,55.6c0,6.6-4.2,8.1-11.9,8.1  c-1.3,0-8.6-0.2-9.8-0.2V47.2c1.3-0.2,8.2-0.3,9.8-0.3c7.6,0,11.9,2.4,11.9,8.1V55.6z"/>
<script xmlns=""/></svg>