<svg width="223" height="26" viewBox="0 0 223 26" fill="none" xmlns="http://www.w3.org/2000/svg">
<g clip-path="url(#clip0_610_182)">
<path fill-rule="evenodd" clip-rule="evenodd" d="M218 17C218 18.9722 216.375 20 214 20H210V5H214C216.261 5 218 5.90593 218 8V17ZM205 0V25H215C219.442 25 223 21.5948 223 17V8C223 3.44163 219.518 0 215 0H205Z" fill="#0A0B09" style="fill:#0A0B09;fill:color(display-p3 0.0392 0.0431 0.0353);fill-opacity:1;"/>
<path fill-rule="evenodd" clip-rule="evenodd" d="M180 25H193V20H180V25Z" fill="#0A0B09" style="fill:#0A0B09;fill:color(display-p3 0.0392 0.0431 0.0353);fill-opacity:1;"/>
<path fill-rule="evenodd" clip-rule="evenodd" d="M180 15H193V10H180V15Z" fill="#0A0B09" style="fill:#0A0B09;fill:color(display-p3 0.0392 0.0431 0.0353);fill-opacity:1;"/>
<path fill-rule="evenodd" clip-rule="evenodd" d="M180 4.45145L180.006 5H193V0H180V4.45145Z" fill="#0A0B09" style="fill:#0A0B09;fill:color(display-p3 0.0392 0.0431 0.0353);fill-opacity:1;"/>
<path fill-rule="evenodd" clip-rule="evenodd" d="M153 10V15H163V25H168V0H163V10H153Z" fill="#0A0B09" style="fill:#0A0B09;fill:color(display-p3 0.0392 0.0431 0.0353);fill-opacity:1;"/>
<path fill-rule="evenodd" clip-rule="evenodd" d="M135 5V25H140V5H147V0H128V5H135Z" fill="#0A0B09" style="fill:#0A0B09;fill:color(display-p3 0.0392 0.0431 0.0353);fill-opacity:1;"/>
<path fill-rule="evenodd" clip-rule="evenodd" d="M120 9V8V7C119.758 3.30151 116.394 0 112 0H104V5H112C113.632 4.94376 114.744 6.01757 115 7V8V9C114.744 10.507 113.632 11.5808 112 12H104V17H109L114 25H120L115 16C117.656 15.0955 119.758 12.3714 120 9Z" fill="black" style="fill:black;fill:black;fill-opacity:1;"/>
<path fill-rule="evenodd" clip-rule="evenodd" d="M81 0.000488281L86 14.0005H79V19.0005H88L90 25.0005H96L87 0.000488281H81Z" fill="black" style="fill:black;fill:black;fill-opacity:1;"/>
<path fill-rule="evenodd" clip-rule="evenodd" d="M55 25H68V20H55V25Z" fill="#0A0B09" style="fill:#0A0B09;fill:color(display-p3 0.0392 0.0431 0.0353);fill-opacity:1;"/>
<path fill-rule="evenodd" clip-rule="evenodd" d="M55 15H68V10H55V15Z" fill="#0A0B09" style="fill:#0A0B09;fill:color(display-p3 0.0392 0.0431 0.0353);fill-opacity:1;"/>
<path fill-rule="evenodd" clip-rule="evenodd" d="M55.0064 5H68V0H55V4.45145L55.0064 5Z" fill="#0A0B09" style="fill:#0A0B09;fill:color(display-p3 0.0392 0.0431 0.0353);fill-opacity:1;"/>
<path fill-rule="evenodd" clip-rule="evenodd" d="M38 0.000488281V16.0005L28 0.000488281V9.00049L38 25.0005H43V0.000488281H38Z" fill="black" style="fill:black;fill:black;fill-opacity:1;"/>
<path fill-rule="evenodd" clip-rule="evenodd" d="M13 17C13.1914 19.0514 12.2314 20.972 10 21H9H8C5.82897 20.972 4.80961 19.1786 5 17V0H0V17C0 22.286 3.49135 26 8 26H9H10C14.4658 26 18 22.3644 18 17V0H13V17Z" fill="black" style="fill:black;fill:black;fill-opacity:1;"/>
</g>
<defs>
<clipPath id="clip0_610_182">
<rect width="223" height="26" fill="white" style="fill:white;fill:white;fill-opacity:1;"/>
</clipPath>
</defs>
</svg>
